<?xml version="1.0" encoding="utf-8"?>
<!-- Generated by Mocodo 4.1.0 -->
<svg width="301" height="406" viewBox="0 0 301 406" xmlns="http://www.w3.org/2000/svg">
<rect x="0" y="0" width="301" height="406" fill="#f7f7f7" stroke="none" stroke-width="0"/>

<!-- Association POSSEDER -->
<g>
	<line x1="54" y1="177" x2="154" y2="51" stroke="#d6604d" stroke-width="2"/>
	<line x1="256" y1="177" x2="154" y2="51" stroke="#d6604d" stroke-width="2"/>
	<g>
		<path d="M176 9 a14 14 90 0 1 14 14 V34 h-72 V23 a14 14 90 0 1 14 -14" fill="#f4a582" stroke="#f4a582" stroke-width="0"/>
		<path d="M190 34 v45 a14 14 90 0 1 -14 14 H132 a14 14 90 0 1 -14 -14 V34 H72" fill="#fddbc7" stroke="#fddbc7" stroke-width="0"/>
		<rect x="118" y="9" width="72" height="84" fill="none" rx="14" stroke="#d6604d" stroke-width="2"/>
		<line x1="118" y1="34" x2="190" y2="34" stroke="#d6604d" stroke-width="1"/>
		<text x="127" y="26.75" fill="#000000" font-family="Verdana" font-size="12">posseder</text>
		<text x="125" y="51.8" fill="#000000" font-family="Verdana" font-size="12">album_id</text>
		<text x="125" y="68.8" fill="#000000" font-family="Verdana" font-size="12">song_id</text>
		<text x="125" y="85.8" fill="#000000" font-family="Verdana" font-size="12">position</text>
	</g>
	<text x="104" y="131.37" fill="#2166ac" font-family="Verdana" font-size="12">1,N</text>
	<text x="198" y="149.68" fill="#2166ac" font-family="Verdana" font-size="12">0,N</text>
</g>

<!-- Association CREER -->
<g>
	<line x1="154" y1="329" x2="154" y2="177" stroke="#d6604d" stroke-width="2"/>
	<line x1="256" y1="177" x2="154" y2="177" stroke="#d6604d" stroke-width="2"/>
	<g>
		<path d="M163 152 a14 14 90 0 1 14 14 V177 h-46 V166 a14 14 90 0 1 14 -14" fill="#f4a582" stroke="#f4a582" stroke-width="0"/>
		<path d="M177 177 v11 a14 14 90 0 1 -14 14 H145 a14 14 90 0 1 -14 -14 V177 H46" fill="#fddbc7" stroke="#fddbc7" stroke-width="0"/>
		<rect x="131" y="152" width="46" height="50" fill="none" rx="14" stroke="#d6604d" stroke-width="2"/>
		<line x1="131" y1="177" x2="177" y2="177" stroke="#d6604d" stroke-width="1"/>
		<text x="138" y="169.75" fill="#000000" font-family="Verdana" font-size="12">creer</text>
	</g>
	<text x="159" y="253" fill="#2166ac" font-family="Verdana" font-size="12">0,N</text>
	<text x="199" y="194" fill="#2166ac" font-family="Verdana" font-size="12">0,1</text>
</g>

<!-- Association CREER2 -->
<g>
	<line x1="154" y1="329" x2="54" y2="329" stroke="#d6604d" stroke-width="2"/>
	<line x1="54" y1="177" x2="54" y2="329" stroke="#d6604d" stroke-width="2"/>
	<g>
		<path d="M63 304 a14 14 90 0 1 14 14 V329 h-46 V318 a14 14 90 0 1 14 -14" fill="#f4a582" stroke="#f4a582" stroke-width="0"/>
		<path d="M77 329 v11 a14 14 90 0 1 -14 14 H45 a14 14 90 0 1 -14 -14 V329 H46" fill="#fddbc7" stroke="#fddbc7" stroke-width="0"/>
		<rect x="31" y="304" width="46" height="50" fill="none" rx="14" stroke="#d6604d" stroke-width="2"/>
		<line x1="31" y1="329" x2="77" y2="329" stroke="#d6604d" stroke-width="1"/>
		<text x="38" y="321.75" fill="#000000" font-family="Verdana" font-size="12">creer</text>
	</g>
	<text x="93" y="346" fill="#2166ac" font-family="Verdana" font-size="12">0,N</text>
	<text x="59" y="253" fill="#2166ac" font-family="Verdana" font-size="12">0,1</text>
</g>

<!-- Association AIMER -->
<g>
	<line x1="154" y1="329" x2="256" y2="329" stroke="#d6604d" stroke-width="2"/>
	<line x1="256" y1="177" x2="256" y2="329" stroke="#d6604d" stroke-width="2"/>
	<g>
		<path d="M278 295 a14 14 90 0 1 14 14 V320 h-72 V309 a14 14 90 0 1 14 -14" fill="#f4a582" stroke="#f4a582" stroke-width="0"/>
		<path d="M292 320 v29 a14 14 90 0 1 -14 14 H234 a14 14 90 0 1 -14 -14 V320 H72" fill="#fddbc7" stroke="#fddbc7" stroke-width="0"/>
		<rect x="220" y="295" width="72" height="68" fill="none" rx="14" stroke="#d6604d" stroke-width="2"/>
		<line x1="220" y1="320" x2="292" y2="320" stroke="#d6604d" stroke-width="1"/>
		<text x="239" y="312.75" fill="#000000" font-family="Verdana" font-size="12">aimer</text>
		<text x="227" y="337.8" fill="#000000" font-family="Verdana" font-size="12">album_id</text>
		<text x="227" y="354.8" fill="#000000" font-family="Verdana" font-size="12">song_id</text>
	</g>
	<text x="193" y="346" fill="#2166ac" font-family="Verdana" font-size="12">0,N</text>
	<text x="261" y="262" fill="#2166ac" font-family="Verdana" font-size="12">0,N</text>
</g>

<!-- Entity ALBUM -->
<g>
	<g>
		<rect x="9" y="118" width="90" height="25" fill="#92c5de" stroke="none" stroke-width="0" opacity="1"/>
		<rect x="9" y="143" width="90" height="93" fill="#d1e5f0" stroke="none" stroke-width="0" opacity="1"/>
		<rect x="9" y="118" width="90" height="118" fill="none" stroke="#4393c3" stroke-width="2" opacity="1"/>
		<line x1="9" y1="143" x2="99" y2="143" stroke="#4393c3" stroke-width="1"/>
	</g>
	<text x="35" y="135.75" fill="#000000" font-family="Verdana" font-size="12">album</text>
	<text x="14" y="160.8" fill="#000000" font-family="Verdana" font-size="12">id</text>
	<line x1="14" y1="163" x2="26" y2="163" stroke="#000000" stroke-width="1"/>
	<text x="14" y="177.8" fill="#000000" font-family="Verdana" font-size="12">title</text>
	<text x="14" y="194.8" fill="#000000" font-family="Verdana" font-size="12">cover</text>
	<text x="14" y="211.8" fill="#000000" font-family="Verdana" font-size="12">release_year</text>
	<text x="14" y="228.8" fill="#000000" font-family="Verdana" font-size="12">artist_id</text>
	<line x1="14" y1="231" x2="65" y2="231" stroke="#000000" stroke-width="1"/>
</g>

<!-- Entity SONG -->
<g>
	<g>
		<rect x="225" y="109" width="62" height="25" fill="#92c5de" stroke="none" stroke-width="0" opacity="1"/>
		<rect x="225" y="134" width="62" height="111" fill="#d1e5f0" stroke="none" stroke-width="0" opacity="1"/>
		<rect x="225" y="109" width="62" height="136" fill="none" stroke="#4393c3" stroke-width="2" opacity="1"/>
		<line x1="225" y1="134" x2="287" y2="134" stroke="#4393c3" stroke-width="1"/>
	</g>
	<text x="241" y="126.75" fill="#000000" font-family="Verdana" font-size="12">song</text>
	<text x="230" y="151.8" fill="#000000" font-family="Verdana" font-size="12">id</text>
	<line x1="230" y1="154" x2="242" y2="154" stroke="#000000" stroke-width="1"/>
	<text x="230" y="168.8" fill="#000000" font-family="Verdana" font-size="12">title</text>
	<text x="230" y="185.8" fill="#000000" font-family="Verdana" font-size="12">duration</text>
	<text x="230" y="202.8" fill="#000000" font-family="Verdana" font-size="12">cover</text>
	<text x="230" y="219.8" fill="#000000" font-family="Verdana" font-size="12">lyrics</text>
	<text x="230" y="236.8" fill="#000000" font-family="Verdana" font-size="12">artist_id</text>
	<line x1="230" y1="239" x2="281" y2="239" stroke="#000000" stroke-width="1"/>
</g>

<!-- Entity ARTIST -->
<g>
	<g>
		<rect x="120" y="261" width="68" height="25" fill="#92c5de" stroke="none" stroke-width="0" opacity="1"/>
		<rect x="120" y="286" width="68" height="111" fill="#d1e5f0" stroke="none" stroke-width="0" opacity="1"/>
		<rect x="120" y="261" width="68" height="136" fill="none" stroke="#4393c3" stroke-width="2" opacity="1"/>
		<line x1="120" y1="286" x2="188" y2="286" stroke="#4393c3" stroke-width="1"/>
	</g>
	<text x="138" y="278.75" fill="#000000" font-family="Verdana" font-size="12">artist</text>
	<text x="125" y="303.8" fill="#000000" font-family="Verdana" font-size="12">id</text>
	<line x1="125" y1="306" x2="137" y2="306" stroke="#000000" stroke-width="1"/>
	<text x="125" y="320.8" fill="#000000" font-family="Verdana" font-size="12">name</text>
	<text x="125" y="337.8" fill="#000000" font-family="Verdana" font-size="12">picture</text>
	<text x="125" y="354.8" fill="#000000" font-family="Verdana" font-size="12">country</text>
	<text x="125" y="371.8" fill="#000000" font-family="Verdana" font-size="12">email</text>
	<text x="125" y="388.8" fill="#000000" font-family="Verdana" font-size="12">password</text>
</g>
</svg>